<svg width="127" height="130" viewBox="0 0 127 130" fill="none" xmlns="http://www.w3.org/2000/svg">
<path d="M77.372 73.0369H89.5109C94.0834 73.0446 98.5331 74.517 102.208 77.2384C105.882 79.9598 108.588 83.7868 109.928 88.1584L116.486 109.545C116.721 110.308 116.774 111.117 116.64 111.905C116.507 112.693 116.19 113.438 115.715 114.082C115.241 114.725 114.622 115.248 113.909 115.608C113.195 115.969 112.407 116.157 111.608 116.158H55.2333C54.434 116.157 53.6459 115.969 52.9325 115.608C52.2191 115.248 51.6003 114.725 51.1258 114.082C50.6514 113.438 50.3345 112.693 50.2007 111.905C50.0668 111.117 50.1198 110.308 50.3554 109.545L56.9127 88.1584C58.2552 83.78 60.9674 79.948 64.6503 77.226C68.3332 74.504 72.7923 73.0356 77.372 73.0369Z" fill="#68E1FD"/>
<path d="M111.629 116.854H55.2542C54.344 116.857 53.446 116.646 52.6324 116.238C51.8187 115.83 51.1123 115.237 50.5699 114.506C50.0275 113.775 49.6643 112.927 49.5097 112.03C49.355 111.133 49.4132 110.213 49.6794 109.342L56.2716 87.9563C57.6412 83.4274 60.4358 79.4614 64.2398 76.6479C68.0439 73.8343 72.6544 72.3235 77.3859 72.3401H89.5109C94.2424 72.3235 98.8529 73.8343 102.657 76.6479C106.461 79.4614 109.256 83.4274 110.625 87.9563L117.183 109.342C117.449 110.213 117.507 111.133 117.352 112.03C117.198 112.927 116.835 113.775 116.292 114.506C115.75 115.237 115.043 115.83 114.23 116.238C113.416 116.646 112.518 116.857 111.608 116.854H111.629ZM77.3719 73.7338C72.9385 73.7182 68.6183 75.1339 65.054 77.7705C61.4896 80.407 58.8714 84.1236 57.5886 88.3675L51.0313 109.754C50.8301 110.414 50.7863 111.113 50.9034 111.793C51.0205 112.474 51.2953 113.117 51.7057 113.673C52.1161 114.228 52.6508 114.68 53.2669 114.991C53.8831 115.303 54.5637 115.466 55.2542 115.468H111.629C112.319 115.466 113 115.303 113.616 114.991C114.232 114.68 114.767 114.228 115.177 113.673C115.588 113.117 115.862 112.474 115.979 111.793C116.097 111.113 116.053 110.414 115.852 109.754L109.294 88.3675C108.012 84.1236 105.393 80.407 101.829 77.7705C98.2646 75.1339 93.9444 73.7182 89.5109 73.7338H77.3719Z" fill="#093F68"/>
<path d="M79.7343 70.6259H87.1487V74.8905C87.1487 75.3042 87.0672 75.7137 86.9089 76.0959C86.7506 76.478 86.5186 76.8253 86.2261 77.1177C85.9337 77.4102 85.5864 77.6422 85.2043 77.8005C84.8221 77.9588 84.4126 78.0403 83.9989 78.0403H82.877C82.0417 78.0403 81.2405 77.7084 80.6498 77.1177C80.0591 76.527 79.7273 75.7259 79.7273 74.8905V70.6259H79.7343Z" fill="#FFC9B0"/>
<path d="M83.9989 78.7301H82.884C81.865 78.7301 80.8877 78.3258 80.1665 77.606C79.4453 76.8861 79.0392 75.9095 79.0374 74.8905V70.6259C79.0374 70.4411 79.1108 70.2638 79.2415 70.1331C79.3722 70.0024 79.5494 69.929 79.7342 69.929H87.1486C87.3335 69.929 87.5107 70.0024 87.6414 70.1331C87.7721 70.2638 87.8455 70.4411 87.8455 70.6259V74.8905C87.8436 75.9095 87.4376 76.8861 86.7164 77.606C85.9952 78.3258 85.0179 78.7301 83.9989 78.7301ZM80.4311 71.3227V74.8905C80.4329 75.5399 80.6922 76.162 81.152 76.6205C81.6118 77.079 82.2346 77.3365 82.884 77.3365H83.9989C84.6483 77.3365 85.2711 77.079 85.7309 76.6205C86.1907 76.162 86.45 75.5399 86.4518 74.8905V71.3227H80.4311Z" fill="#093F68"/>
<path d="M57.8534 50.062C54.411 48.7589 54.6201 46.1249 54.1044 42.7522C53.588 39.4104 53.2692 36.0412 53.1497 32.6619C53.0173 28.8223 53.1497 24.8782 54.6131 21.3173C56.4876 16.739 60.1878 13.7844 65.1284 14.1886C64.9821 7.44317 69.0308 1.11584 76.2013 0.732581C87.6922 0.11936 94.3191 12.4604 100.737 11.5406C107.155 10.6208 108.876 7.76372 108.876 7.76372C109.955 9.82755 110.398 12.1645 110.15 14.4798C109.902 16.7951 108.974 18.9852 107.482 20.7738C107.482 20.7738 112.549 19.2965 113.162 26.0349C113.775 32.7734 109.74 50.6822 109.74 50.6822L105.162 49.9018C103.232 49.5603 100.821 50.0342 98.8904 50.0969L84.5285 50.5429C77.3232 50.7449 65.672 53.0166 57.8534 50.062Z" fill="#725858"/>
<path d="M68.2085 52.2571C64.4316 52.2571 60.7174 51.8878 57.6025 50.7101C54.2647 49.4419 53.9581 47.0308 53.6027 44.2365C53.5469 43.7719 53.4842 43.3073 53.4145 42.8428C52.8951 39.4732 52.574 36.0761 52.4529 32.6689C52.3274 29.0662 52.4111 24.8573 53.972 21.0455C55.958 16.1676 59.6652 13.443 64.2156 13.443H64.4316C64.5849 6.9554 68.5639 0.425983 76.1664 0.0218143C82.8491 -0.326607 88.0127 3.56874 92.138 6.69756C95.3296 9.11561 98.0891 11.1992 100.633 10.8368C106.591 9.98666 108.298 7.41531 108.298 7.38744C108.361 7.286 108.45 7.20259 108.555 7.14523C108.66 7.08787 108.777 7.05849 108.897 7.05992C109.018 7.05994 109.137 7.09144 109.242 7.1513C109.347 7.21117 109.435 7.29735 109.496 7.40138C109.531 7.46409 113.022 13.6172 108.967 19.9445C109.832 19.9837 110.671 20.2583 111.392 20.7389C112.785 21.7145 113.657 23.4706 113.88 25.9722C114.5 32.7455 110.618 50.0969 110.451 50.8355C110.411 51.0098 110.305 51.1619 110.156 51.2605C110.007 51.3591 109.826 51.3965 109.65 51.3651L105.051 50.5986C103.69 50.4475 102.316 50.4663 100.96 50.6544C100.263 50.724 99.5664 50.7868 98.8695 50.8077L84.5076 51.2537C82.7167 51.3094 80.6123 51.4975 78.3893 51.6927C75.2466 51.9435 71.6997 52.2571 68.2085 52.2571ZM58.0973 49.407C63.7975 51.5672 71.8321 50.8495 78.3057 50.2711C80.5495 50.069 82.6749 49.8809 84.5076 49.8251L98.8695 49.3791C99.4758 49.3791 100.138 49.2955 100.835 49.2328C102.313 49.0278 103.812 49.0138 105.294 49.191C105.538 49.191 106.333 49.3652 109.232 49.8878C109.928 46.6266 113.022 31.9442 112.493 26.1046C112.305 24.0141 111.677 22.6204 110.618 21.9236C110.188 21.6569 109.708 21.4789 109.208 21.3999C108.708 21.321 108.197 21.3426 107.705 21.4636C107.563 21.5045 107.411 21.4989 107.272 21.4475C107.133 21.3961 107.014 21.3017 106.932 21.1779C106.851 21.0542 106.811 20.9078 106.818 20.76C106.826 20.6121 106.88 20.4705 106.974 20.3557C108.28 18.8136 109.134 16.9403 109.441 14.943C109.749 12.9458 109.498 10.9024 108.716 9.03895C107.65 10.0424 105.329 11.6103 100.849 12.2514C97.7267 12.6904 94.7512 10.4466 91.3088 7.84735C87.1277 4.69066 82.424 1.12283 76.257 1.45034C69.2468 1.81967 65.7068 8.147 65.8392 14.1956C65.8408 14.2935 65.8218 14.3906 65.7834 14.4807C65.745 14.5707 65.688 14.6517 65.6162 14.7182C65.545 14.7855 65.4605 14.8371 65.368 14.8695C65.2755 14.9019 65.1773 14.9145 65.0797 14.9064C60.7314 14.544 57.1566 16.9969 55.2751 21.603C53.8187 25.1778 53.742 29.1986 53.8814 32.6549C53.999 36.006 54.3131 39.3473 54.8221 42.6616C54.8988 43.1563 54.9615 43.6232 55.0173 44.0553C55.3517 46.6893 55.5747 48.4314 58.1321 49.4L58.0973 49.407Z" fill="#093F68"/>
<path d="M62.2574 57.574C66.233 57.574 69.4558 54.7973 69.4558 51.3721C69.4558 47.9469 66.233 45.1702 62.2574 45.1702C58.2819 45.1702 55.0591 47.9469 55.0591 51.3721C55.0591 54.7973 58.2819 57.574 62.2574 57.574Z" fill="#FFC9B0"/>
<path d="M62.2574 58.2639C57.9022 58.2639 54.3622 55.1699 54.3622 51.3652C54.3622 47.5604 57.9022 44.4594 62.2574 44.4594C66.6127 44.4594 70.1596 47.5604 70.1596 51.3652C70.1596 55.1699 66.6127 58.2639 62.2574 58.2639ZM62.2574 45.8531C58.6757 45.8531 55.7559 48.3269 55.7559 51.3652C55.7559 54.4034 58.6757 56.8702 62.2574 56.8702C65.8392 56.8702 68.7659 54.4034 68.7659 51.3652C68.7659 48.3269 65.8462 45.8601 62.2574 45.8601V45.8531Z" fill="#093F68"/>
<path d="M104.242 57.574C108.218 57.574 111.441 54.7973 111.441 51.3721C111.441 47.9469 108.218 45.1702 104.242 45.1702C100.267 45.1702 97.0438 47.9469 97.0438 51.3721C97.0438 54.7973 100.267 57.574 104.242 57.574Z" fill="#FFC9B0"/>
<path d="M104.242 58.2639C99.8869 58.2639 96.34 55.1699 96.34 51.3652C96.34 47.5604 99.8869 44.4594 104.242 44.4594C108.597 44.4594 112.137 47.5604 112.137 51.3652C112.137 55.1699 108.597 58.2639 104.242 58.2639ZM104.242 45.8531C100.653 45.8531 97.7337 48.3269 97.7337 51.3652C97.7337 54.4034 100.653 56.8702 104.242 56.8702C107.831 56.8702 110.744 54.4034 110.744 51.3652C110.744 48.3269 107.838 45.8601 104.242 45.8601V45.8531Z" fill="#093F68"/>
<path d="M83.4484 71.5945C77.6914 71.5963 72.1691 69.3126 68.095 65.245C64.0209 61.1774 61.7283 55.6588 61.7209 49.9018V34.1113C62.9891 36.2019 67.205 35.3657 73.386 24.7667C96.5212 36.4876 105.162 29.77 105.162 29.77V49.9018C105.155 55.6564 102.864 61.1729 98.7928 65.2401C94.7217 69.3073 89.203 71.5927 83.4484 71.5945Z" fill="#FFC9B0"/>
<path d="M83.4484 72.2913C77.5083 72.2876 71.8119 69.9287 67.6084 65.7316C63.4048 61.5346 61.0369 55.8419 61.024 49.9018V34.1113C61.0225 33.9581 61.0716 33.8086 61.1637 33.686C61.2557 33.5635 61.3856 33.4747 61.5332 33.4334C61.6808 33.3921 61.8379 33.4007 61.9802 33.4577C62.1225 33.5148 62.2419 33.6172 62.3202 33.749C62.4269 33.9346 62.5831 34.087 62.7714 34.1891C62.9596 34.2912 63.1725 34.3391 63.3863 34.3274C64.2365 34.3274 67.428 33.5817 72.7728 24.4113C72.8587 24.2532 73.0024 24.1345 73.1738 24.0799C73.3453 24.0253 73.5312 24.0392 73.6926 24.1186C96.0473 35.4423 104.646 29.2543 104.73 29.1916C104.833 29.112 104.957 29.063 105.087 29.0503C105.217 29.0375 105.348 29.0616 105.465 29.1197C105.582 29.1779 105.68 29.2677 105.749 29.379C105.817 29.4902 105.853 29.6185 105.852 29.7491V49.9018C105.839 55.8383 103.474 61.5278 99.275 65.7243C95.0759 69.9207 89.3849 72.2821 83.4484 72.2913ZM62.4247 35.5538V49.9018C62.4247 55.4776 64.6397 60.8251 68.5824 64.7678C72.5251 68.7105 77.8726 70.9255 83.4484 70.9255C89.0243 70.9255 94.3717 68.7105 98.3144 64.7678C102.257 60.8251 104.472 55.4776 104.472 49.9018V30.9686C101.462 32.3623 92.2147 34.9266 73.6648 25.6795C69.8182 32.1393 66.1876 35.7001 63.4212 35.721C63.0786 35.7377 62.7364 35.6807 62.4177 35.5538H62.4247Z" fill="#093F68"/>
<path d="M97.3853 111.029C97.2004 111.029 97.0232 110.955 96.8925 110.825C96.7618 110.694 96.6884 110.517 96.6884 110.332V84.8414C96.6884 84.6566 96.7618 84.4794 96.8925 84.3487C97.0232 84.218 97.2004 84.1446 97.3853 84.1446C97.5701 84.1446 97.7473 84.218 97.878 84.3487C98.0087 84.4794 98.0821 84.6566 98.0821 84.8414V110.332C98.0821 110.517 98.0087 110.694 97.878 110.825C97.7473 110.955 97.5701 111.029 97.3853 111.029Z" fill="#093F68"/>
<path d="M69.5116 111.029C69.3268 111.029 69.1495 110.955 69.0188 110.825C68.8881 110.694 68.8147 110.517 68.8147 110.332V84.8414C68.8147 84.6566 68.8881 84.4794 69.0188 84.3487C69.1495 84.218 69.3268 84.1446 69.5116 84.1446C69.6964 84.1446 69.8736 84.218 70.0043 84.3487C70.135 84.4794 70.2084 84.6566 70.2084 84.8414V110.332C70.2084 110.517 70.135 110.694 70.0043 110.825C69.8736 110.955 69.6964 111.029 69.5116 111.029Z" fill="#093F68"/>
<path d="M83.3927 53.8668C82.6621 53.8616 81.933 53.801 81.2116 53.6856C81.0267 53.6533 80.8624 53.5489 80.7545 53.3953C80.6467 53.2417 80.6043 53.0517 80.6367 52.8668C80.669 52.682 80.7734 52.5176 80.927 52.4098C81.0805 52.302 81.2706 52.2596 81.4555 52.2919C82.552 52.4645 83.6689 52.4645 84.7655 52.2919C84.9048 51.6508 84.0686 49.2607 82.884 47.0099C82.8431 46.9268 82.8191 46.8364 82.8135 46.744C82.8079 46.6515 82.8208 46.5589 82.8514 46.4715C82.8821 46.3841 82.9298 46.3037 82.9919 46.235C83.0539 46.1662 83.129 46.1105 83.2129 46.0712C83.2967 46.0318 83.3875 46.0095 83.4801 46.0057C83.5726 46.0018 83.6649 46.0165 83.7518 46.0487C83.8386 46.081 83.9181 46.1302 83.9856 46.1935C84.0532 46.2569 84.1075 46.333 84.1453 46.4176C84.9257 47.9158 86.6748 51.5533 86.0337 52.9818C85.962 53.1525 85.8516 53.3043 85.7114 53.4252C85.5711 53.5461 85.4048 53.6328 85.2254 53.6787C84.6246 53.8166 84.009 53.8798 83.3927 53.8668Z" fill="#093F68"/>
<path d="M78.5705 37.1705H67.9228C67.5532 37.1705 67.1987 37.0236 66.9373 36.7623C66.6759 36.5009 66.5291 36.1464 66.5291 35.7768C66.5291 35.4072 66.6759 35.0527 66.9373 34.7913C67.1987 34.5299 67.5532 34.3831 67.9228 34.3831H78.5775C78.9471 34.3831 79.3016 34.5299 79.563 34.7913C79.8243 35.0527 79.9712 35.4072 79.9712 35.7768C79.9712 36.1464 79.8243 36.5009 79.563 36.7623C79.3016 37.0236 78.9471 37.1705 78.5775 37.1705H78.5705Z" fill="#093F68"/>
<path d="M98.2563 37.1705H87.6086C87.2389 37.1705 86.8845 37.0236 86.6231 36.7623C86.3617 36.5009 86.2149 36.1464 86.2149 35.7768C86.2149 35.4072 86.3617 35.0527 86.6231 34.7913C86.8845 34.5299 87.2389 34.3831 87.6086 34.3831H98.2563C98.6259 34.3831 98.9804 34.5299 99.2418 34.7913C99.5032 35.0527 99.65 35.4072 99.65 35.7768C99.65 36.1464 99.5032 36.5009 99.2418 36.7623C98.9804 37.0236 98.6259 37.1705 98.2563 37.1705Z" fill="#093F68"/>
<path d="M66.996 40.9892H79.5391C80.0123 40.9892 80.466 41.1771 80.8006 41.5117C81.1351 41.8462 81.3231 42.3 81.3231 42.7731V43.9368C81.3231 45.5318 80.6895 47.0614 79.5617 48.1892C78.4339 49.317 76.9043 49.9506 75.3093 49.9506H71.2188C69.6239 49.9506 68.0943 49.317 66.9665 48.1892C65.8387 47.0614 65.2051 45.5318 65.2051 43.9368V42.7731C65.2051 42.5382 65.2515 42.3057 65.3416 42.0888C65.4316 41.8719 65.5637 41.6749 65.7301 41.5092C65.8964 41.3434 66.0939 41.2122 66.3112 41.123C66.5284 41.0337 66.7611 40.9882 66.996 40.9892Z" fill="white"/>
<path d="M75.3163 50.6544H71.2328C69.4536 50.6525 67.7478 49.9449 66.4897 48.6868C65.2316 47.4288 64.524 45.723 64.5222 43.9438V42.7731C64.5222 42.1163 64.7826 41.4864 65.2463 41.0214C65.71 40.5563 66.3392 40.2942 66.996 40.2923H79.5391C80.1965 40.2942 80.8264 40.5561 81.2913 41.0209C81.7561 41.4858 82.0181 42.1157 82.0199 42.7731V43.9438C82.0181 45.7218 81.3114 47.4265 80.0548 48.6844C78.7983 49.9423 77.0943 50.6507 75.3163 50.6544ZM66.996 41.686C66.8535 41.686 66.7125 41.7142 66.581 41.7689C66.4495 41.8236 66.3301 41.9038 66.2298 42.0048C66.1294 42.1058 66.05 42.2257 65.9961 42.3576C65.9422 42.4894 65.915 42.6306 65.9159 42.7731V43.9438C65.9177 45.3533 66.4785 46.7046 67.4752 47.7013C68.4719 48.6981 69.8232 49.2588 71.2328 49.2607H75.3163C76.7265 49.2588 78.0785 48.6983 79.0763 47.7018C80.0741 46.7053 80.6365 45.354 80.6402 43.9438V42.7731C80.6402 42.4848 80.5256 42.2083 80.3218 42.0044C80.1179 41.8005 79.8414 41.686 79.5531 41.686H66.996Z" fill="#093F68"/>
<path d="M87.2462 40.9892H99.7894C100.262 40.9892 100.716 41.1771 101.051 41.5117C101.385 41.8462 101.573 42.3 101.573 42.7731V43.9368C101.573 45.5318 100.94 47.0614 99.8119 48.1892C98.6841 49.317 97.1545 49.9506 95.5595 49.9506H91.4691C89.8741 49.9506 88.3445 49.317 87.2167 48.1892C86.0889 47.0614 85.4553 45.5318 85.4553 43.9368V42.7731C85.4553 42.5382 85.5017 42.3057 85.5918 42.0888C85.6819 41.8719 85.8139 41.6749 85.9803 41.5092C86.1467 41.3434 86.3441 41.2122 86.5614 41.123C86.7786 41.0337 87.0113 40.9882 87.2462 40.9892Z" fill="white"/>
<path d="M95.5665 50.6544H91.483C89.7026 50.6544 87.995 49.9476 86.7354 48.6893C85.4758 47.431 84.7673 45.7242 84.7654 43.9438V42.7731C84.7673 42.1157 85.0292 41.4858 85.4941 41.021C85.9589 40.5561 86.5888 40.2942 87.2462 40.2923H99.7893C100.446 40.2942 101.075 40.5564 101.539 41.0214C102.003 41.4864 102.263 42.1164 102.263 42.7731V43.9438C102.261 45.7206 101.556 47.4243 100.301 48.6819C99.0455 49.9396 97.3433 50.6488 95.5665 50.6544ZM87.2462 41.686C86.9579 41.686 86.6814 41.8005 86.4775 42.0044C86.2736 42.2083 86.1591 42.4848 86.1591 42.7731V43.9438C86.1628 45.354 86.7251 46.7053 87.7229 47.7018C88.7208 48.6983 90.0728 49.2589 91.483 49.2607H95.5665C96.976 49.2588 98.3274 48.6981 99.3241 47.7014C100.321 46.7046 100.882 45.3533 100.883 43.9438V42.7731C100.884 42.6307 100.857 42.4895 100.803 42.3576C100.749 42.2258 100.67 42.1059 100.57 42.0048C100.469 41.9038 100.35 41.8236 100.218 41.7689C100.087 41.7142 99.9457 41.686 99.8033 41.686H87.2462Z" fill="#093F68"/>
<path d="M65.219 44.6406H61.1495C60.9646 44.6406 60.7874 44.5672 60.6567 44.4365C60.526 44.3058 60.4526 44.1286 60.4526 43.9438C60.4526 43.759 60.526 43.5817 60.6567 43.451C60.7874 43.3203 60.9646 43.2469 61.1495 43.2469H65.1981C65.3829 43.2469 65.5602 43.3203 65.6909 43.451C65.8215 43.5817 65.895 43.759 65.895 43.9438C65.895 44.1286 65.8215 44.3058 65.6909 44.4365C65.5602 44.5672 65.3829 44.6406 65.1981 44.6406H65.219Z" fill="#093F68"/>
<path d="M105.831 44.6406H101.789C101.604 44.6406 101.427 44.5672 101.297 44.4365C101.166 44.3058 101.092 44.1286 101.092 43.9438C101.092 43.759 101.166 43.5817 101.297 43.451C101.427 43.3203 101.604 43.2469 101.789 43.2469H105.831C106.016 43.2469 106.193 43.3203 106.324 43.451C106.454 43.5817 106.528 43.759 106.528 43.9438C106.528 44.1286 106.454 44.3058 106.324 44.4365C106.193 44.5672 106.016 44.6406 105.831 44.6406Z" fill="#093F68"/>
<path d="M85.4623 44.6406H81.3579C81.1731 44.6406 80.9958 44.5672 80.8651 44.4365C80.7345 44.3058 80.661 44.1286 80.661 43.9438C80.661 43.759 80.7345 43.5817 80.8651 43.451C80.9958 43.3203 81.1731 43.2469 81.3579 43.2469H85.4832C85.668 43.2469 85.8452 43.3203 85.9759 43.451C86.1066 43.5817 86.18 43.759 86.18 43.9438C86.18 44.1286 86.1066 44.3058 85.9759 44.4365C85.8452 44.5672 85.668 44.6406 85.4832 44.6406H85.4623Z" fill="#093F68"/>
<path d="M82.9815 60.5844C80.4951 60.5941 78.0284 60.1428 75.7065 59.2534C75.5337 59.1869 75.3944 59.0544 75.3192 58.8852C75.2441 58.716 75.2393 58.5238 75.3058 58.351C75.3723 58.1782 75.5048 58.0389 75.674 57.9638C75.8433 57.8886 76.0354 57.8838 76.2082 57.9503C80.661 59.5504 85.532 59.5504 89.9848 57.9503C90.0694 57.9151 90.1602 57.8969 90.2519 57.8967C90.3436 57.8966 90.4344 57.9145 90.5191 57.9494C90.6039 57.9843 90.681 58.0356 90.7459 58.1004C90.8109 58.1651 90.8624 58.242 90.8976 58.3266C90.9329 58.4113 90.9511 58.502 90.9512 58.5937C90.9514 58.6854 90.9335 58.7762 90.8986 58.861C90.8636 58.9457 90.8123 59.0228 90.7476 59.0877C90.6829 59.1527 90.606 59.2042 90.5213 59.2395C88.11 60.1397 85.5554 60.5954 82.9815 60.5844Z" fill="#093F68"/>
<path d="M102.549 105.175C102.386 105.179 102.227 105.125 102.099 105.023C101.972 104.921 101.885 104.778 101.852 104.618C101.834 104.528 101.833 104.436 101.851 104.346C101.868 104.256 101.903 104.17 101.953 104.094C102.004 104.018 102.069 103.952 102.145 103.901C102.221 103.85 102.306 103.814 102.396 103.796L110.103 102.221C110.287 102.184 110.479 102.222 110.636 102.326C110.793 102.431 110.902 102.593 110.939 102.778C110.976 102.963 110.938 103.155 110.833 103.312C110.729 103.469 110.566 103.577 110.381 103.614L102.674 105.182C102.632 105.186 102.59 105.184 102.549 105.175Z" fill="#093F68"/>
<path d="M64.334 105.175C64.2878 105.183 64.2408 105.183 64.1946 105.175L56.4876 103.559C56.3961 103.54 56.309 103.504 56.2315 103.452C56.154 103.4 56.0874 103.334 56.0356 103.256C55.9839 103.178 55.9479 103.091 55.9298 103C55.9117 102.908 55.9118 102.814 55.9301 102.722C55.9484 102.631 55.9845 102.544 56.0365 102.466C56.0884 102.389 56.1551 102.322 56.2327 102.271C56.3104 102.219 56.3975 102.183 56.489 102.165C56.5806 102.147 56.6748 102.147 56.7663 102.165L64.4734 103.74C64.5631 103.758 64.6483 103.794 64.7241 103.845C64.8 103.896 64.865 103.962 64.9155 104.038C64.966 104.115 65.0009 104.2 65.0183 104.29C65.0357 104.38 65.0352 104.472 65.0169 104.562C64.9967 104.73 64.9163 104.884 64.7907 104.997C64.6651 105.11 64.5028 105.173 64.334 105.175Z" fill="#093F68"/>
<path d="M63.7696 90.5695H103.03C103.913 90.5695 104.76 90.9204 105.385 91.5451C106.01 92.1698 106.361 93.017 106.361 93.9004V116.799H60.4526V93.9004C60.4526 93.0194 60.8016 92.1743 61.4233 91.55C62.045 90.9257 62.8886 90.5732 63.7696 90.5695Z" fill="#F56132"/>
<path d="M106.361 117.495H60.4526C60.2678 117.495 60.0906 117.422 59.9599 117.291C59.8292 117.161 59.7558 116.983 59.7558 116.799V93.9004C59.7558 92.8322 60.1801 91.8077 60.9355 91.0523C61.6908 90.297 62.7153 89.8727 63.7835 89.8727H103.03C104.098 89.8727 105.122 90.297 105.878 91.0523C106.633 91.8077 107.057 92.8322 107.057 93.9004V116.799C107.057 116.983 106.984 117.161 106.853 117.291C106.723 117.422 106.545 117.495 106.361 117.495ZM61.1495 116.102H105.678V93.9004C105.676 93.2024 105.398 92.5334 104.904 92.0399C104.411 91.5463 103.742 91.2682 103.044 91.2663H63.7696C63.0716 91.2682 62.4027 91.5463 61.9091 92.0399C61.4155 92.5334 61.1374 93.2024 61.1355 93.9004L61.1495 116.102Z" fill="#093F68"/>
<path d="M58.2088 116.799H108.597C108.597 117.689 108.244 118.544 107.614 119.174C106.984 119.804 106.129 120.157 105.239 120.157H61.5676C60.6768 120.157 59.8225 119.804 59.1926 119.174C58.5627 118.544 58.2088 117.689 58.2088 116.799Z" fill="#F56132"/>
<path d="M105.232 120.868H61.5676C60.4925 120.866 59.462 120.438 58.7019 119.678C57.9417 118.918 57.5138 117.888 57.512 116.813C57.512 116.628 57.5854 116.451 57.7161 116.32C57.8467 116.189 58.024 116.116 58.2088 116.116H108.59C108.775 116.116 108.953 116.189 109.083 116.32C109.214 116.451 109.287 116.628 109.287 116.813C109.285 117.888 108.858 118.918 108.097 119.678C107.337 120.438 106.307 120.866 105.232 120.868ZM58.9962 117.495C59.1504 118.059 59.4855 118.557 59.9501 118.912C60.4146 119.267 60.9829 119.46 61.5676 119.461H105.232C105.822 119.468 106.399 119.278 106.87 118.923C107.342 118.567 107.682 118.065 107.838 117.495H58.9962Z" fill="#093F68"/>
<path d="M82.884 91.2663C82.6992 91.2663 82.5219 91.1929 82.3912 91.0622C82.2606 90.9316 82.1871 90.7543 82.1871 90.5695V78.0263C82.1871 77.8415 82.2606 77.6643 82.3912 77.5336C82.5219 77.4029 82.6992 77.3295 82.884 77.3295C83.0688 77.3295 83.246 77.4029 83.3767 77.5336C83.5074 77.6643 83.5808 77.8415 83.5808 78.0263V90.5695C83.5808 90.7543 83.5074 90.9316 83.3767 91.0622C83.246 91.1929 83.0688 91.2663 82.884 91.2663Z" fill="#093F68"/>
<path d="M16.8024 100.012H36.314V113.767C36.314 115.466 35.6393 117.095 34.4383 118.296C33.2373 119.497 31.6085 120.171 29.91 120.171H23.2064C21.508 120.171 19.8791 119.497 18.6781 118.296C17.4771 117.095 16.8024 115.466 16.8024 113.767V100.012Z" fill="#FFBC0E"/>
<path d="M29.91 120.868H23.2064C21.3237 120.866 19.5187 120.118 18.1874 118.786C16.8561 117.455 16.1074 115.65 16.1056 113.767V100.012C16.1056 99.8269 16.179 99.6496 16.3097 99.5189C16.4404 99.3883 16.6176 99.3148 16.8024 99.3148H36.314C36.4988 99.3148 36.6761 99.3883 36.8067 99.5189C36.9374 99.6496 37.0108 99.8269 37.0108 100.012V113.767C37.009 115.65 36.2603 117.455 34.929 118.786C33.5978 120.118 31.7927 120.866 29.91 120.868ZM17.4993 100.709V113.767C17.4993 115.281 18.1005 116.733 19.1708 117.803C20.2411 118.873 21.6928 119.474 23.2064 119.474H29.91C31.4231 119.473 32.8736 118.871 33.9435 117.801C35.0134 116.731 35.6153 115.28 35.6172 113.767V100.709H17.4993Z" fill="#093F68"/>
<path d="M121.503 120.171H4.97702C2.71407 120.171 0.879593 122.004 0.879593 124.265C0.879593 126.526 2.71407 128.359 4.97702 128.359H121.503C123.766 128.359 125.6 126.526 125.6 124.265C125.6 122.004 123.766 120.171 121.503 120.171Z" fill="#725858"/>
<path d="M121.503 129.056H4.97702C4.33251 129.081 3.68967 128.975 3.08697 128.745C2.48428 128.516 1.93413 128.167 1.46945 127.719C1.00477 127.272 0.635123 126.736 0.382633 126.142C0.130142 125.549 0 124.91 0 124.265C0 123.62 0.130142 122.982 0.382633 122.388C0.635123 121.795 1.00477 121.259 1.46945 120.811C1.93413 120.364 2.48428 120.015 3.08697 119.785C3.68967 119.556 4.33251 119.45 4.97702 119.474H121.503C122.147 119.45 122.79 119.556 123.393 119.785C123.996 120.015 124.546 120.364 125.011 120.811C125.475 121.259 125.845 121.795 126.097 122.388C126.35 122.982 126.48 123.62 126.48 124.265C126.48 124.91 126.35 125.549 126.097 126.142C125.845 126.736 125.475 127.272 125.011 127.719C124.546 128.167 123.996 128.516 123.393 128.745C122.79 128.975 122.147 129.081 121.503 129.056ZM4.97702 120.868C4.51796 120.847 4.05945 120.92 3.62918 121.081C3.1989 121.243 2.80579 121.489 2.47358 121.807C2.14138 122.124 1.87697 122.506 1.69632 122.928C1.51567 123.351 1.42253 123.806 1.42253 124.265C1.42253 124.725 1.51567 125.18 1.69632 125.602C1.87697 126.025 2.14138 126.406 2.47358 126.724C2.80579 127.041 3.1989 127.288 3.62918 127.449C4.05945 127.611 4.51796 127.683 4.97702 127.662H121.503C121.962 127.683 122.421 127.611 122.851 127.449C123.281 127.288 123.674 127.041 124.006 126.724C124.339 126.406 124.603 126.025 124.784 125.602C124.964 125.18 125.057 124.725 125.057 124.265C125.057 123.806 124.964 123.351 124.784 122.928C124.603 122.506 124.339 122.124 124.006 121.807C123.674 121.489 123.281 121.243 122.851 121.081C122.421 120.92 121.962 120.847 121.503 120.868H4.97702Z" fill="#093F68"/>
<path d="M37.4568 114.011H36.321C36.1362 114.011 35.9589 113.938 35.8282 113.807C35.6976 113.676 35.6241 113.499 35.6241 113.314V102.256C35.6241 102.071 35.6976 101.893 35.8282 101.763C35.9589 101.632 36.1362 101.559 36.321 101.559H37.4568C38.3375 101.452 39.2308 101.534 40.0776 101.798C40.9244 102.062 41.7056 102.503 42.3694 103.092C43.0332 103.68 43.5647 104.403 43.9287 105.212C44.2926 106.021 44.4808 106.898 44.4808 107.785C44.4808 108.672 44.2926 109.549 43.9287 110.358C43.5647 111.167 43.0332 111.89 42.3694 112.478C41.7056 113.067 40.9244 113.508 40.0776 113.772C39.2308 114.036 38.3375 114.118 37.4568 114.011ZM37.0178 112.618H37.4568C38.1396 112.695 38.8311 112.628 39.486 112.42C40.1409 112.212 40.7445 111.868 41.2572 111.41C41.7698 110.953 42.18 110.392 42.4609 109.765C42.7418 109.138 42.887 108.458 42.887 107.771C42.887 107.084 42.7418 106.404 42.4609 105.777C42.18 105.15 41.7698 104.589 41.2572 104.132C40.7445 103.674 40.1409 103.33 39.486 103.122C38.8311 102.914 38.1396 102.847 37.4568 102.924H37.0178V112.618Z" fill="#093F68"/>
<path d="M45.8189 38.7384H4.51014C3.548 38.7384 2.76804 39.5183 2.76804 40.4805V74.6745C2.76804 75.6367 3.548 76.4166 4.51014 76.4166H45.8189C46.7811 76.4166 47.5611 75.6367 47.5611 74.6745V40.4805C47.5611 39.5183 46.7811 38.7384 45.8189 38.7384Z" fill="white"/>
<path d="M45.819 77.1135H4.50318C3.85753 77.1116 3.23897 76.8539 2.78308 76.3967C2.32719 75.9395 2.07119 75.3202 2.0712 74.6745V40.4735C2.0712 39.8285 2.32742 39.2099 2.78351 38.7538C3.23959 38.2978 3.85817 38.0415 4.50318 38.0415H45.819C46.4646 38.0415 47.0839 38.2975 47.5411 38.7534C47.9983 39.2093 48.2561 39.8279 48.2579 40.4735V74.6745C48.2579 75.3214 48.0009 75.9417 47.5435 76.3991C47.0862 76.8565 46.4658 77.1135 45.819 77.1135ZM4.50318 39.4492C4.2278 39.4492 3.96371 39.5585 3.76899 39.7533C3.57427 39.948 3.46488 40.2121 3.46488 40.4874V74.6885C3.46488 74.9645 3.57404 75.2293 3.76856 75.4251C3.96309 75.6209 4.22716 75.7319 4.50318 75.7337H45.819C46.0962 75.7337 46.362 75.6236 46.5581 75.4276C46.7541 75.2316 46.8642 74.9657 46.8642 74.6885V40.4735C46.8587 40.1999 46.7462 39.9394 46.5508 39.7479C46.3553 39.5563 46.0926 39.4491 45.819 39.4492H4.50318Z" fill="#093F68"/>
<path d="M4.50317 38.7523H45.8189C46.281 38.7523 46.7241 38.9358 47.0508 39.2625C47.3775 39.5892 47.5611 40.0324 47.5611 40.4944V43.5117H2.76804V40.4944C2.76803 40.0336 2.95062 39.5915 3.27582 39.265C3.60102 38.9385 4.04234 38.7541 4.50317 38.7523Z" fill="#68E1FD"/>
<path d="M47.5611 44.1946H2.76804C2.58323 44.1946 2.40598 44.1212 2.2753 43.9905C2.14461 43.8599 2.0712 43.6826 2.0712 43.4978V40.4735C2.0712 39.8285 2.32742 39.2099 2.78351 38.7538C3.23959 38.2978 3.85817 38.0415 4.50318 38.0415H45.819C46.4646 38.0415 47.0839 38.2975 47.5411 38.7534C47.9983 39.2093 48.2561 39.8279 48.2579 40.4735V43.4978C48.2579 43.6826 48.1845 43.8599 48.0538 43.9905C47.9231 44.1212 47.7459 44.1946 47.5611 44.1946ZM3.46488 42.801H46.8642V40.4735C46.8587 40.1999 46.7462 39.9394 46.5508 39.7479C46.3553 39.5563 46.0926 39.4491 45.819 39.4492H4.50318C4.2278 39.4492 3.96371 39.5585 3.76899 39.7533C3.57427 39.948 3.46488 40.2121 3.46488 40.4874V42.801Z" fill="#093F68"/>
<path d="M6.24527 42.0484C6.76098 42.0484 7.17905 41.6303 7.17905 41.1146C7.17905 40.5989 6.76098 40.1808 6.24527 40.1808C5.72957 40.1808 5.31151 40.5989 5.31151 41.1146C5.31151 41.6303 5.72957 42.0484 6.24527 42.0484Z" fill="#093F68"/>
<path d="M8.85843 42.0484C9.37414 42.0484 9.7922 41.6303 9.7922 41.1146C9.7922 40.5989 9.37414 40.1808 8.85843 40.1808C8.34273 40.1808 7.92467 40.5989 7.92467 41.1146C7.92467 41.6303 8.34273 42.0484 8.85843 42.0484Z" fill="#093F68"/>
<path d="M11.4786 42.0484C11.9943 42.0484 12.4123 41.6303 12.4123 41.1146C12.4123 40.5989 11.9943 40.1808 11.4786 40.1808C10.9629 40.1808 10.5448 40.5989 10.5448 41.1146C10.5448 41.6303 10.9629 42.0484 11.4786 42.0484Z" fill="#093F68"/>
<path d="M19.4017 56.6263L12.9559 59.567V59.6158L19.4017 62.5564V65.7758L9.10931 61.0861V58.0966L19.4017 53.386V56.6263Z" fill="#093F68"/>
<path d="M27.046 48.7381L29.3595 49.5673L23.2622 68.0197L20.9626 67.1904L27.046 48.7381Z" fill="#093F68"/>
<path d="M30.9274 62.5564L37.3732 59.6158V59.567L30.9274 56.6263V53.386L41.2128 58.0757V61.0652L30.9274 65.7549V62.5564Z" fill="#093F68"/>
</svg>
