<svg width="428" height="101" viewBox="0 0 428 101" fill="none" xmlns="http://www.w3.org/2000/svg">
<rect width="428" height="101" fill="#1E1E1E"/>
<g filter="url(#filter0_i_0_1)">
<path fill-rule="evenodd" clip-rule="evenodd" d="M0.232 85.4C0.232 86.4667 0.765334 87 1.832 87H20.008C21.0747 87 21.608 86.4667 21.608 85.4V64H0.232V85.4ZM0.232 49V26.072C0.232 25.5173 0.445334 24.8773 0.872 24.152L16.04 2.648C16.5093 2.008 17.192 1.688 18.088 1.688H39.272C40.2107 1.688 40.8933 2.008 41.32 2.648L56.552 24.152C56.9787 24.7493 57.192 25.3893 57.192 26.072V49H0.232ZM57.192 64H35.88V85.4C35.88 86.4667 36.4133 87 37.48 87H55.592C56.6587 87 57.192 86.4667 57.192 85.4V64ZM72.18 64H92.468V72.088H100.532C101.94 72.088 102.9 71.8107 103.412 71.256C103.924 70.7013 104.18 69.72 104.18 68.312V64H124.468V70.552C124.468 71.576 124.105 72.4293 123.38 73.112L110.58 85.912C109.855 86.6373 109.001 87 108.02 87H73.78C72.7133 87 72.18 86.4667 72.18 85.4V64ZM124.468 49V33.048C124.468 32.024 124.105 31.1707 123.38 30.488L110.58 17.688C109.855 16.9627 109.001 16.6 108.02 16.6H98.228C97.204 16.6 96.3507 16.9627 95.668 17.688L92.468 20.888V3.288C92.468 2.22134 91.9347 1.688 90.868 1.688H73.78C72.7133 1.688 72.18 2.22134 72.18 3.288V49H92.468V35.288C92.468 33.88 92.724 32.8987 93.236 32.344C93.748 31.7893 94.6867 31.512 96.052 31.512H100.532C101.94 31.512 102.9 31.7893 103.412 32.344C103.924 32.8987 104.18 33.88 104.18 35.288V49H124.468ZM139.43 64V85.4C139.43 86.4667 139.963 87 141.03 87H158.118C159.185 87 159.718 86.4667 159.718 85.4V64H139.43ZM159.718 49H139.43V3.288C139.43 2.22134 139.963 1.688 141.03 1.688H158.118C159.185 1.688 159.718 2.22134 159.718 3.288V16.6H175.27C176.251 16.6 177.105 16.9627 177.83 17.688L190.63 30.488C191.355 31.1707 191.718 32.024 191.718 33.048V49H171.43V35.288C171.43 33.496 170.534 32.6 168.742 32.6H159.718V49ZM171.43 64V85.4C171.43 86.4667 171.963 87 173.03 87H190.118C191.185 87 191.718 86.4667 191.718 85.4V64H171.43ZM206.68 64V85.4C206.68 86.4667 207.213 87 208.28 87H225.304C226.371 87 226.904 86.4667 226.904 85.4V64H206.68ZM241.805 64V85.4C241.805 86.4667 242.338 87 243.405 87H260.493C261.56 87 262.093 86.4667 262.093 85.4V64H241.805ZM262.093 49H241.805V18.2C241.805 17.1333 242.338 16.6 243.405 16.6H277.645C278.626 16.6 279.48 16.9627 280.205 17.688L293.005 30.488C293.73 31.1707 294.093 32.024 294.093 33.048V49H273.805V35.608C273.805 33.6027 272.802 32.6 270.797 32.6H262.093V49ZM273.805 64V85.4C273.805 86.4667 274.338 87 275.405 87H292.493C293.56 87 294.093 86.4667 294.093 85.4V64H273.805ZM308.607 64V70.552C308.607 71.576 308.97 72.4293 309.695 73.112L322.495 85.912C323.22 86.6373 324.074 87 325.055 87H334.847C335.871 87 336.724 86.6373 337.407 85.912L340.607 82.712L343.807 85.912C344.148 86.2107 344.447 86.4667 344.703 86.68C345.002 86.8933 345.428 87 345.983 87H359.295C360.362 87 360.895 86.4667 360.895 85.4V64H340.607V68.312C340.607 69.72 340.351 70.7013 339.839 71.256C339.327 71.8107 338.388 72.088 337.023 72.088H332.543C331.135 72.088 330.175 71.8107 329.663 71.256C329.151 70.7013 328.895 69.72 328.895 68.312V64H308.607ZM340.607 49V31.512H332.543C331.135 31.512 330.175 31.7893 329.663 32.344C329.151 32.8987 328.895 33.88 328.895 35.288V49H308.607V33.048C308.607 32.024 308.97 31.1707 309.695 30.488L322.495 17.688C323.22 16.9627 324.074 16.6 325.055 16.6H359.295C360.362 16.6 360.895 17.1333 360.895 18.2V49H340.607ZM375.357 64V70.552C375.357 71.576 375.72 72.4293 376.445 73.112L389.245 85.912C389.97 86.6373 390.824 87 391.805 87H411.197C412.221 87 413.074 86.6373 413.757 85.912L426.557 73.112C427.282 72.4293 427.645 71.576 427.645 70.552V64H407.357V71H395.645V64H375.357ZM395.645 49H375.357V18.2C375.357 17.1333 375.89 16.6 376.957 16.6H394.045C395.112 16.6 395.645 17.1333 395.645 18.2V49ZM407.357 49H427.645V18.2C427.645 17.1333 427.112 16.6 426.045 16.6H408.957C407.89 16.6 407.357 17.1333 407.357 18.2V49ZM226.904 49H206.68V18.2C206.68 17.1333 207.213 16.6 208.28 16.6H225.304C226.371 16.6 226.904 17.1333 226.904 18.2V49ZM36.648 41.88C35.2827 43.5867 32.6373 44.44 28.712 44.44C24.8293 44.44 22.184 43.5867 20.776 41.88C19.4107 40.1307 18.728 36.824 18.728 31.96C18.728 27.096 19.4107 23.8107 20.776 22.104C22.184 20.3547 24.8293 19.48 28.712 19.48C32.6373 19.48 35.2827 20.3547 36.648 22.104C38.056 23.8107 38.76 27.096 38.76 31.96C38.76 36.824 38.056 40.1307 36.648 41.88ZM206.68 10.008C206.68 10.8613 207.107 11.288 207.96 11.288H225.752C226.52 11.288 226.904 10.8613 226.904 10.008V1.88C226.904 1.02667 226.52 0.600006 225.752 0.600006H207.96C207.107 0.600006 206.68 1.02667 206.68 1.88V10.008Z" fill="#31E85E"/>
</g>
<path d="M123.435 63C123.268 63 123.185 62.9167 123.185 62.75V53.48C123.185 53.3933 123.218 53.2933 123.285 53.18L125.655 49.82C125.728 49.72 125.835 49.67 125.975 49.67H129.285C129.431 49.67 129.538 49.72 129.605 49.82L131.985 53.18C132.051 53.2733 132.085 53.3733 132.085 53.48V62.75C132.085 62.9167 132.001 63 131.835 63H129.005C128.838 63 128.755 62.9167 128.755 62.75V58.5H126.525V62.75C126.525 62.9167 126.441 63 126.275 63H123.435ZM127.635 56.35C128.248 56.35 128.661 56.2167 128.875 55.95C129.095 55.6767 129.205 55.16 129.205 54.4C129.205 53.64 129.095 53.1267 128.875 52.86C128.661 52.5867 128.248 52.45 127.635 52.45C127.028 52.45 126.615 52.5867 126.395 52.86C126.181 53.1267 126.075 53.64 126.075 54.4C126.075 55.16 126.181 55.6767 126.395 55.95C126.615 56.2167 127.028 56.35 127.635 56.35ZM140.11 63C139.957 63 139.823 62.9433 139.71 62.83L137.71 60.83C137.597 60.7233 137.54 60.59 137.54 60.43V52.25C137.54 52.0833 137.623 52 137.79 52H140.46C140.627 52 140.71 52.0833 140.71 52.25V60.5H142.38V52.25C142.38 52.0833 142.463 52 142.63 52H145.29C145.457 52 145.54 52.0833 145.54 52.25V60.5H147.21V52.25C147.21 52.0833 147.293 52 147.46 52H150.13C150.297 52 150.38 52.0833 150.38 52.25V60.43C150.38 60.59 150.323 60.7233 150.21 60.83L148.21 62.83C148.097 62.9433 147.963 63 147.81 63H145.53C145.37 63 145.237 62.9433 145.13 62.83L143.78 61.48H144.14L142.79 62.83C142.683 62.9433 142.55 63 142.39 63H140.11ZM157.188 63C157.121 63 157.048 62.99 156.968 62.97C156.894 62.95 156.824 62.9333 156.758 62.92L154.978 62.48L152.938 61.8C152.738 61.7333 152.638 61.54 152.638 61.22V54.57C152.638 54.41 152.694 54.2767 152.808 54.17L154.808 52.17C154.921 52.0567 155.054 52 155.208 52H158.408C158.561 52 158.694 52.0567 158.808 52.17L160.808 54.17C160.921 54.2767 160.978 54.41 160.978 54.57V58.67H155.608L155.538 60L156.958 60.47L159.508 60.65C159.621 60.67 159.678 60.7467 159.678 60.88V62.75C159.678 62.9167 159.594 63 159.428 63H157.188ZM156.788 57.1H156.978C157.304 57.1 157.564 56.9767 157.758 56.73C157.958 56.4833 158.058 56.15 158.058 55.73V55.53C158.058 55.1167 157.958 54.7867 157.758 54.54C157.564 54.2933 157.304 54.17 156.978 54.17H156.778C156.458 54.17 156.201 54.2933 156.008 54.54C155.821 54.7867 155.728 55.1167 155.728 55.53V55.73C155.728 56.15 155.821 56.4833 156.008 56.73C156.201 56.9767 156.461 57.1 156.788 57.1ZM163.309 63C163.143 63 163.059 62.9167 163.059 62.75V49.92C163.059 49.7533 163.143 49.67 163.309 49.67H165.979C166.146 49.67 166.229 49.7533 166.229 49.92V52.67L166.729 52.17C166.836 52.0567 166.969 52 167.129 52H168.659C168.813 52 168.946 52.0567 169.059 52.17L171.059 54.17C171.173 54.2767 171.229 54.41 171.229 54.57V60.43C171.229 60.59 171.173 60.7233 171.059 60.83L169.059 62.83C168.946 62.9433 168.813 63 168.659 63H163.309ZM166.229 60.67H167.489C167.709 60.67 167.859 60.6267 167.939 60.54C168.019 60.4533 168.059 60.3 168.059 60.08V54.92C168.059 54.7 168.019 54.5467 167.939 54.46C167.859 54.3733 167.709 54.33 167.489 54.33H166.789C166.576 54.33 166.429 54.3733 166.349 54.46C166.269 54.5467 166.229 54.7 166.229 54.92V60.67ZM173.507 63C173.341 63 173.257 62.9167 173.257 62.75V61.13C173.257 60.9767 173.307 60.8767 173.407 60.83L175.447 59.62V58.58L173.407 57.48C173.307 57.42 173.257 57.3167 173.257 57.17V53.98C173.257 53.9067 173.267 53.8467 173.287 53.8C173.314 53.7533 173.351 53.7133 173.397 53.68L175.527 52.12C175.601 52.0667 175.661 52.0333 175.707 52.02C175.754 52.0067 175.801 52 175.847 52H178.277C178.444 52 178.527 52.0833 178.527 52.25V53.82C178.527 53.9333 178.517 54.01 178.497 54.05C178.484 54.09 178.451 54.1233 178.397 54.15L176.507 55.17V56.33L178.527 57.33C178.641 57.3767 178.697 57.4767 178.697 57.63V60.7C178.697 60.8667 178.641 61 178.527 61.1L176.397 62.87C176.291 62.9567 176.157 63 175.997 63H173.507ZM181.044 63C180.877 63 180.794 62.9167 180.794 62.75V52.25C180.794 52.0833 180.877 52 181.044 52H183.704C183.87 52 183.954 52.0833 183.954 52.25V62.75C183.954 62.9167 183.87 63 183.704 63H181.044ZM180.994 51.17C180.86 51.17 180.794 51.1033 180.794 50.97V49.7C180.794 49.5667 180.86 49.5 180.994 49.5H183.774C183.894 49.5 183.954 49.5667 183.954 49.7V50.97C183.954 51.1033 183.894 51.17 183.774 51.17H180.994ZM188.582 63C188.429 63 188.295 62.9433 188.182 62.83L186.512 61.17C186.405 61.0567 186.352 60.9233 186.352 60.77V54.33H185.932C185.765 54.33 185.682 54.2467 185.682 54.08V52.25C185.682 52.0833 185.765 52 185.932 52H186.352V50.75C186.352 50.5833 186.435 50.5 186.602 50.5H189.262C189.429 50.5 189.512 50.5833 189.512 50.75V52H190.482C190.649 52 190.732 52.0833 190.732 52.25V54.08C190.732 54.2467 190.649 54.33 190.482 54.33H189.512V59.67C189.512 59.7967 189.552 59.9 189.632 59.98L190.612 60.97C190.679 61.03 190.712 61.13 190.712 61.27V62.75C190.712 62.9167 190.629 63 190.462 63H188.582ZM197.012 63C196.945 63 196.872 62.99 196.792 62.97C196.719 62.95 196.649 62.9333 196.582 62.92L194.802 62.48L192.762 61.8C192.562 61.7333 192.462 61.54 192.462 61.22V54.57C192.462 54.41 192.519 54.2767 192.632 54.17L194.632 52.17C194.745 52.0567 194.879 52 195.032 52H198.232C198.385 52 198.519 52.0567 198.632 52.17L200.632 54.17C200.745 54.2767 200.802 54.41 200.802 54.57V58.67H195.432L195.362 60L196.782 60.47L199.332 60.65C199.445 60.67 199.502 60.7467 199.502 60.88V62.75C199.502 62.9167 199.419 63 199.252 63H197.012ZM196.612 57.1H196.802C197.129 57.1 197.389 56.9767 197.582 56.73C197.782 56.4833 197.882 56.15 197.882 55.73V55.53C197.882 55.1167 197.782 54.7867 197.582 54.54C197.389 54.2933 197.129 54.17 196.802 54.17H196.602C196.282 54.17 196.025 54.2933 195.832 54.54C195.645 54.7867 195.552 55.1167 195.552 55.53V55.73C195.552 56.15 195.645 56.4833 195.832 56.73C196.025 56.9767 196.285 57.1 196.612 57.1ZM208.567 63C208.414 63 208.281 62.9433 208.167 62.83L206.167 60.83C206.054 60.7233 205.997 60.59 205.997 60.43V54.57C205.997 54.41 206.054 54.2767 206.167 54.17L208.167 52.17C208.281 52.0567 208.414 52 208.567 52H210.097C210.257 52 210.391 52.0567 210.497 52.17L210.997 52.67V49.92C210.997 49.7533 211.081 49.67 211.247 49.67H213.917C214.084 49.67 214.167 49.7533 214.167 49.92V62.75C214.167 62.9167 214.084 63 213.917 63H211.837C211.751 63 211.684 62.9833 211.637 62.95C211.597 62.9167 211.551 62.8767 211.497 62.83L210.997 62.33L210.497 62.83C210.391 62.9433 210.257 63 210.097 63H208.567ZM209.737 60.67H210.437C210.651 60.67 210.797 60.6267 210.877 60.54C210.957 60.4533 210.997 60.3 210.997 60.08V54.33H209.737C209.517 54.33 209.367 54.3733 209.287 54.46C209.207 54.5467 209.167 54.7 209.167 54.92V60.08C209.167 60.3 209.207 60.4533 209.287 60.54C209.367 60.6267 209.517 60.67 209.737 60.67ZM220.977 63C220.91 63 220.837 62.99 220.757 62.97C220.684 62.95 220.614 62.9333 220.547 62.92L218.767 62.48L216.727 61.8C216.527 61.7333 216.427 61.54 216.427 61.22V54.57C216.427 54.41 216.484 54.2767 216.597 54.17L218.597 52.17C218.71 52.0567 218.844 52 218.997 52H222.197C222.35 52 222.484 52.0567 222.597 52.17L224.597 54.17C224.71 54.2767 224.767 54.41 224.767 54.57V58.67H219.397L219.327 60L220.747 60.47L223.297 60.65C223.41 60.67 223.467 60.7467 223.467 60.88V62.75C223.467 62.9167 223.384 63 223.217 63H220.977ZM220.577 57.1H220.767C221.094 57.1 221.354 56.9767 221.547 56.73C221.747 56.4833 221.847 56.15 221.847 55.73V55.53C221.847 55.1167 221.747 54.7867 221.547 54.54C221.354 54.2933 221.094 54.17 220.767 54.17H220.567C220.247 54.17 219.99 54.2933 219.797 54.54C219.61 54.7867 219.517 55.1167 219.517 55.53V55.73C219.517 56.15 219.61 56.4833 219.797 56.73C219.99 56.9767 220.25 57.1 220.577 57.1ZM229.348 63C229.195 63 229.062 62.9433 228.948 62.83L226.948 60.83C226.835 60.7233 226.778 60.59 226.778 60.43V52.25C226.778 52.0833 226.862 52 227.028 52H229.698C229.865 52 229.948 52.0833 229.948 52.25V60.5H231.778V52.25C231.778 52.0833 231.862 52 232.028 52H234.698C234.865 52 234.948 52.0833 234.948 52.25V60.43C234.948 60.59 234.892 60.7233 234.778 60.83L232.778 62.83C232.672 62.9433 232.538 63 232.378 63H229.348ZM241.758 63C241.691 63 241.618 62.99 241.538 62.97C241.465 62.95 241.395 62.9333 241.328 62.92L239.548 62.48L237.508 61.8C237.308 61.7333 237.208 61.54 237.208 61.22V54.57C237.208 54.41 237.265 54.2767 237.378 54.17L239.378 52.17C239.491 52.0567 239.625 52 239.778 52H242.978C243.131 52 243.265 52.0567 243.378 52.17L245.378 54.17C245.491 54.2767 245.548 54.41 245.548 54.57V58.67H240.178L240.108 60L241.528 60.47L244.078 60.65C244.191 60.67 244.248 60.7467 244.248 60.88V62.75C244.248 62.9167 244.165 63 243.998 63H241.758ZM241.358 57.1H241.548C241.875 57.1 242.135 56.9767 242.328 56.73C242.528 56.4833 242.628 56.15 242.628 55.73V55.53C242.628 55.1167 242.528 54.7867 242.328 54.54C242.135 54.2933 241.875 54.17 241.548 54.17H241.348C241.028 54.17 240.771 54.2933 240.578 54.54C240.391 54.7867 240.298 55.1167 240.298 55.53V55.73C240.298 56.15 240.391 56.4833 240.578 56.73C240.771 56.9767 241.031 57.1 241.358 57.1ZM247.76 63C247.593 63 247.51 62.9167 247.51 62.75V49.92C247.51 49.7533 247.593 49.67 247.76 49.67H250.43C250.596 49.67 250.68 49.7533 250.68 49.92V62.75C250.68 62.9167 250.596 63 250.43 63H247.76ZM255.384 63C255.23 63 255.097 62.9433 254.984 62.83L252.984 60.83C252.87 60.7233 252.814 60.59 252.814 60.43V54.57C252.814 54.41 252.87 54.2767 252.984 54.17L254.984 52.17C255.097 52.0567 255.23 52 255.384 52H258.414C258.574 52 258.707 52.0567 258.814 52.17L260.814 54.17C260.927 54.2767 260.984 54.41 260.984 54.57V60.43C260.984 60.59 260.927 60.7233 260.814 60.83L258.814 62.83C258.707 62.9433 258.574 63 258.414 63H255.384ZM256.554 60.67H257.254C257.467 60.67 257.614 60.6267 257.694 60.54C257.774 60.4533 257.814 60.3 257.814 60.08V54.92C257.814 54.7 257.774 54.5467 257.694 54.46C257.614 54.3733 257.467 54.33 257.254 54.33H256.554C256.334 54.33 256.184 54.3733 256.104 54.46C256.024 54.5467 255.984 54.7 255.984 54.92V60.08C255.984 60.3 256.024 60.4533 256.104 60.54C256.184 60.6267 256.334 60.67 256.554 60.67ZM263.563 66C263.397 66 263.313 65.9167 263.313 65.75V52.25C263.313 52.0833 263.397 52 263.563 52H265.633C265.753 52 265.87 52.0567 265.983 52.17L266.483 52.67L266.983 52.17C267.09 52.0567 267.223 52 267.383 52H268.913C269.067 52 269.2 52.0567 269.313 52.17L271.313 54.17C271.427 54.2767 271.483 54.41 271.483 54.57V60.43C271.483 60.59 271.427 60.7233 271.313 60.83L269.313 62.83C269.2 62.9433 269.067 63 268.913 63H267.383C267.223 63 267.09 62.9433 266.983 62.83L266.483 62.33V65.75C266.483 65.9167 266.4 66 266.233 66H263.563ZM266.483 60.67H267.743C267.963 60.67 268.113 60.6267 268.193 60.54C268.273 60.4533 268.313 60.3 268.313 60.08V54.92C268.313 54.7 268.273 54.5467 268.193 54.46C268.113 54.3733 267.963 54.33 267.743 54.33H267.043C266.83 54.33 266.683 54.3733 266.603 54.46C266.523 54.5467 266.483 54.7 266.483 54.92V60.67ZM278.301 63C278.234 63 278.161 62.99 278.081 62.97C278.008 62.95 277.938 62.9333 277.871 62.92L276.091 62.48L274.051 61.8C273.851 61.7333 273.751 61.54 273.751 61.22V54.57C273.751 54.41 273.808 54.2767 273.921 54.17L275.921 52.17C276.034 52.0567 276.168 52 276.321 52H279.521C279.674 52 279.808 52.0567 279.921 52.17L281.921 54.17C282.034 54.2767 282.091 54.41 282.091 54.57V58.67H276.721L276.651 60L278.071 60.47L280.621 60.65C280.734 60.67 280.791 60.7467 280.791 60.88V62.75C280.791 62.9167 280.708 63 280.541 63H278.301ZM277.901 57.1H278.091C278.418 57.1 278.678 56.9767 278.871 56.73C279.071 56.4833 279.171 56.15 279.171 55.73V55.53C279.171 55.1167 279.071 54.7867 278.871 54.54C278.678 54.2933 278.418 54.17 278.091 54.17H277.891C277.571 54.17 277.314 54.2933 277.121 54.54C276.934 54.7867 276.841 55.1167 276.841 55.53V55.73C276.841 56.15 276.934 56.4833 277.121 56.73C277.314 56.9767 277.574 57.1 277.901 57.1ZM284.423 63C284.256 63 284.173 62.9167 284.173 62.75V52.25C284.173 52.0833 284.256 52 284.423 52H285.943C286.069 52 286.179 52.0567 286.273 52.17L287.253 53.3L288.343 52.12C288.416 52.04 288.509 52 288.623 52H289.703C289.869 52 289.953 52.0833 289.953 52.25V54.4C289.953 54.5067 289.946 54.58 289.933 54.62C289.919 54.6533 289.883 54.69 289.823 54.73L287.343 56.56V62.75C287.343 62.9167 287.259 63 287.093 63H284.423Z" fill="#009311"/>
<defs>
<filter id="filter0_i_0_1" x="0.232" y="0.600006" width="427.413" height="90.4" filterUnits="userSpaceOnUse" color-interpolation-filters="sRGB">
<feFlood flood-opacity="0" result="BackgroundImageFix"/>
<feBlend mode="normal" in="SourceGraphic" in2="BackgroundImageFix" result="shape"/>
<feColorMatrix in="SourceAlpha" type="matrix" values="0 0 0 0 0 0 0 0 0 0 0 0 0 0 0 0 0 0 127 0" result="hardAlpha"/>
<feOffset dy="10"/>
<feGaussianBlur stdDeviation="2"/>
<feComposite in2="hardAlpha" operator="arithmetic" k2="-1" k3="1"/>
<feColorMatrix type="matrix" values="0 0 0 0 0 0 0 0 0 0 0 0 0 0 0 0 0 0 0.25 0"/>
<feBlend mode="normal" in2="shape" result="effect1_innerShadow_0_1"/>
</filter>
</defs>
</svg>
